<svg width="80" height="55" viewBox="0 0 80 55" fill="none" xmlns="http://www.w3.org/2000/svg">
<g opacity="0.6">
<path d="M76.9402 21.9864L75.1966 20.72L69.0769 9.40434C68.0342 7.49299 65.3675 6.22657 62.3932 6.21484H18.6838C15.7094 6.21484 13.0427 7.49299 12 9.40434L5.96581 20.5793L3.45299 22.174C1.26496 23.4522 0 25.3284 0 27.2983V43.7852C0.017094 46.4822 3.21368 48.6633 7.1453 48.6633H11.6581C15.5897 48.6633 18.7863 46.4822 18.8034 43.7852V41.3931H61.1966V43.7852C61.2137 46.4822 64.4103 48.6633 68.3419 48.6633H72.8547C76.7863 48.6633 79.9829 46.4822 80 43.7852V26.8645C79.9829 25.0235 78.8889 23.2646 76.9402 21.9864ZM15.2137 10.2017C15.7607 9.20499 17.1453 8.56006 18.6838 8.56006H62.4103C63.9487 8.56006 65.3333 9.21672 65.8803 10.2017L71.2137 20.0516H67.2308C66.2906 15.6543 60.3248 12.6173 53.9145 13.2739C48.8034 13.7899 44.7863 16.5455 44.0342 20.0516H9.88034L15.2137 10.2017ZM63.7436 20.0516H47.4872C48.4273 16.9677 52.8376 14.9977 57.3333 15.6426C60.547 16.1117 63.0598 17.8354 63.7436 20.0516ZM15.3846 43.7852C15.3675 45.1923 13.7094 46.318 11.6581 46.318H7.1453C5.09402 46.318 3.4359 45.1923 3.4188 43.7852V40.713C4.44444 41.1703 5.79487 41.3931 7.1453 41.3931H15.3846V43.7852ZM76.5812 43.7852C76.5641 45.1923 74.906 46.318 72.8547 46.318H68.3419C66.2906 46.318 64.6325 45.1806 64.6154 43.7852V41.3931H72.8547C74.2051 41.3931 75.5556 41.1703 76.5812 40.713V43.7852ZM72.8547 39.0479H7.1453C5.11111 39.0596 3.4359 37.9456 3.4188 36.5385V27.2983C3.4188 26.0085 4.25641 24.7772 5.69231 23.9447C5.7094 23.933 5.74359 23.9095 5.76068 23.8978L8.08547 22.3968H72.8205L74.4615 23.6046C74.4786 23.6281 74.5299 23.6398 74.547 23.6633C75.8291 24.4958 76.5641 25.6567 76.5641 26.8645V36.5385H76.5812C76.5641 37.9339 74.8889 39.0596 72.8547 39.0479Z" fill="black"/>
<path d="M22.5641 27.0872H9.74358C8.80341 27.0872 8.03418 27.6149 8.03418 28.2598V34.3574C8.03418 35.0023 8.80341 35.53 9.74358 35.53H22.5641C23.5043 35.53 24.2735 35.0023 24.2735 34.3574V28.2598C24.2735 27.6149 23.5043 27.0872 22.5641 27.0872ZM20.8547 33.1848H11.453V29.4324H20.8547V33.1848Z" fill="black"/>
<path d="M70.2565 27.0872H57.436C56.4958 27.0872 55.7266 27.6149 55.7266 28.2598V34.3574C55.7266 35.0023 56.4958 35.53 57.436 35.53H70.2565C71.1966 35.53 71.9659 35.0023 71.9659 34.3574V28.2598C71.9659 27.6149 71.1966 27.0872 70.2565 27.0872ZM68.5471 33.1848H59.1454V29.4324H68.5471V33.1848Z" fill="black"/>
<path d="M48.2564 32.0122H31.7436C30.8034 32.0122 30.0342 32.5399 30.0342 33.1848C30.0342 33.8298 30.8034 34.3574 31.7436 34.3574H48.2564C49.1966 34.3574 49.9658 33.8298 49.9658 33.1848C49.9658 32.5399 49.1966 32.0122 48.2564 32.0122Z" fill="black"/>
<path d="M48.2564 28.3771H31.7436C30.8034 28.3771 30.0342 28.9048 30.0342 29.5497C30.0342 30.1947 30.8034 30.7224 31.7436 30.7224H48.2564C49.1966 30.7224 49.9658 30.1947 49.9658 29.5497C49.9658 28.9048 49.1966 28.3771 48.2564 28.3771Z" fill="black"/>
</g>
</svg>
