<svg width="70" height="52" viewBox="0 0 70 52" fill="none" xmlns="http://www.w3.org/2000/svg">
<g opacity="0.6">
<path d="M68.8333 28.9773H67.6667V26.4205C67.6636 24.7281 66.29 23.1974 64.1667 22.5205V9.37503C64.1664 9.03625 63.8916 8.72986 63.4667 8.59435C63.9218 8.06146 64.1642 7.44633 64.1667 6.81821C64.1667 4.93543 62.0773 3.40912 59.5 3.40912C56.9227 3.40912 54.8333 4.93543 54.8333 6.81821C54.8381 7.41842 55.0621 8.00681 55.482 8.52275H14.518C14.9379 8.00681 15.1619 7.41842 15.1667 6.81821C15.1667 4.93543 13.0773 3.40912 10.5 3.40912C7.92269 3.40912 5.83333 4.93543 5.83333 6.81821C5.83581 7.44633 6.07819 8.06146 6.53333 8.59435C6.10837 8.72986 5.83362 9.03625 5.83333 9.37503V22.5205C3.71 23.1974 2.3364 24.7281 2.33333 26.4205V28.9773H1.16667C0.522375 28.9773 0 29.3589 0 29.8296V41.7614C0 42.2321 0.522375 42.6137 1.16667 42.6137H2.33333V46.875C2.33333 47.3457 2.85571 47.7273 3.5 47.7273H8.16667C8.81096 47.7273 9.33333 47.3457 9.33333 46.875V42.6137H60.6667V46.875C60.6667 47.3457 61.189 47.7273 61.8333 47.7273H66.5C67.1443 47.7273 67.6667 47.3457 67.6667 46.875V42.6137H68.8333C69.4776 42.6137 70 42.2321 70 41.7614V29.8296C70 29.3589 69.4776 28.9773 68.8333 28.9773ZM59.5 5.11366C60.7887 5.11366 61.8333 5.87677 61.8333 6.81821C61.8333 7.75965 60.7887 8.52275 59.5 8.52275C58.2113 8.52275 57.1667 7.75965 57.1667 6.81821C57.1667 5.87677 58.2113 5.11366 59.5 5.11366ZM10.5 5.11366C11.7887 5.11366 12.8333 5.87677 12.8333 6.81821C12.8333 7.75965 11.7887 8.52275 10.5 8.52275C9.21127 8.52275 8.16667 7.75965 8.16667 6.81821C8.16667 5.87677 9.21127 5.11366 10.5 5.11366ZM8.16667 10.2273H61.8333V22.1591H57.1363C57.9084 21.4258 58.3291 20.5274 58.3333 19.6023V17.8978C58.3295 15.5455 55.72 13.6392 52.5 13.6364H43.1667C39.9467 13.6392 37.3371 15.5455 37.3333 17.8978V19.6023C37.3376 20.5274 37.7583 21.4258 38.5303 22.1591H31.4697C32.2417 21.4258 32.6624 20.5274 32.6667 19.6023V17.8978C32.6629 15.5455 30.0533 13.6392 26.8333 13.6364H17.5C14.28 13.6392 11.6705 15.5455 11.6667 17.8978V19.6023C11.6709 20.5274 12.0916 21.4258 12.8637 22.1591H8.16667V10.2273ZM56 17.8978V19.6023C56 21.0144 54.433 22.1591 52.5 22.1591H43.1667C41.2336 22.1591 39.6667 21.0144 39.6667 19.6023V17.8978C39.6667 16.4856 41.2336 15.3409 43.1667 15.3409H52.5C54.433 15.3409 56 16.4856 56 17.8978ZM30.3333 17.8978V19.6023C30.3333 21.0144 28.7664 22.1591 26.8333 22.1591H17.5C15.567 22.1591 14 21.0144 14 19.6023V17.8978C14 16.4856 15.567 15.3409 17.5 15.3409H26.8333C28.7664 15.3409 30.3333 16.4856 30.3333 17.8978ZM4.66667 26.4205C4.66667 25.0084 6.23365 23.8637 8.16667 23.8637H61.8333C63.7664 23.8637 65.3333 25.0084 65.3333 26.4205V28.9773H4.66667V26.4205ZM7 46.0228H4.66667V42.6137H7V46.0228ZM65.3333 46.0228H63V42.6137H65.3333V46.0228ZM67.6667 40.9091H2.33333V30.6818H67.6667V40.9091Z" fill="black"/>
<path d="M10.5001 37.5H5.83341C5.18912 37.5 4.66675 37.8816 4.66675 38.3523C4.66675 38.8229 5.18912 39.2045 5.83341 39.2045H10.5001C11.1444 39.2045 11.6667 38.8229 11.6667 38.3523C11.6667 37.8816 11.1444 37.5 10.5001 37.5Z" fill="black"/>
<path d="M64.1667 37.5H15.1667C14.5224 37.5 14 37.8816 14 38.3523C14 38.8229 14.5224 39.2045 15.1667 39.2045H64.1667C64.811 39.2045 65.3333 38.8229 65.3333 38.3523C65.3333 37.8816 64.811 37.5 64.1667 37.5Z" fill="black"/>
</g>
</svg>
