<svg width="78" height="43" viewBox="0 0 78 43" fill="none" xmlns="http://www.w3.org/2000/svg">
<g opacity="0.6" clip-path="url(#clip0_78949_61)">
<path d="M75.4437 19.1433C75.3448 19.1433 75.2448 19.1378 75.1477 19.1267C75.0506 19.116 74.9553 19.1 74.8647 19.0792C74.7724 19.0583 74.6842 19.0326 74.6025 19.0026C74.519 18.9727 74.4415 18.9375 74.3722 18.899C74.3023 18.8609 74.2384 18.8176 74.184 18.7723C74.1295 18.7264 74.0827 18.6782 74.0448 18.628C74.007 18.5782 73.9768 18.5257 73.9584 18.4723C73.9389 18.4179 73.9282 18.3638 73.9282 18.3094C73.9282 18.2547 73.9389 18.2003 73.9584 18.1462C73.9768 18.0928 74.007 18.041 74.0448 17.9902C74.0827 17.94 74.1295 17.8918 74.184 17.8469C74.2384 17.8009 74.3023 17.7583 74.3722 17.7192C74.4415 17.6807 74.519 17.6459 74.6025 17.6159C74.6842 17.5859 74.7724 17.5599 74.8647 17.539C74.9553 17.5182 75.0512 17.5025 75.1477 17.4915C75.3436 17.47 75.5431 17.47 75.7391 17.4915C75.8362 17.5025 75.9315 17.5182 76.0238 17.539C76.115 17.5599 76.2026 17.5859 76.2843 17.6159C76.3677 17.6459 76.4453 17.6807 76.5151 17.7192C76.5844 17.7586 76.6483 17.8009 76.7046 17.8469C76.759 17.8918 76.8058 17.94 76.8437 17.9902C76.8816 18.041 76.9106 18.0928 76.9301 18.1462C76.9497 18.2003 76.9591 18.2547 76.9591 18.3094C76.9591 18.3638 76.9497 18.4179 76.9301 18.4723C76.9106 18.5257 76.8816 18.5782 76.8437 18.628C76.8058 18.6782 76.759 18.7264 76.7046 18.7723C76.6483 18.8176 76.5844 18.8609 76.5151 18.899C76.4453 18.9375 76.3677 18.9727 76.2843 19.0026C76.2026 19.0326 76.115 19.0583 76.0238 19.0792C75.9315 19.1 75.8362 19.116 75.7391 19.1267C75.642 19.1378 75.5419 19.1433 75.4437 19.1433Z" fill="black"/>
<path d="M53.3591 20.4017H41.5132C40.6768 20.4017 39.9978 20.0284 39.9978 19.5678V15.3366C39.9978 13.132 43.2578 11.3384 47.2636 11.3384H47.6087C51.6152 11.3384 54.8746 13.132 54.8746 15.3366V19.5678C54.8746 20.0284 54.1962 20.4017 53.3591 20.4017ZM43.0287 18.7339H51.8437V15.3366C51.8437 14.0519 49.9441 13.0062 47.6093 13.0062H47.2636C44.9289 13.0062 43.0293 14.0519 43.0293 15.3366V18.7339H43.0287Z" fill="black"/>
<path d="M75.4437 21.1653C74.6067 21.1653 73.9283 21.5386 73.9283 21.9992V34.5442H15.9569V0.991939C15.9569 0.531329 15.2779 0.15802 14.4414 0.15802H2.79327C1.95623 0.15802 1.27783 0.531329 1.27783 0.991939V41.78C1.27783 42.2407 1.95623 42.614 2.79327 42.614H75.4437C76.2802 42.614 76.9592 42.2407 76.9592 41.78V21.9992C76.9592 21.5386 76.2808 21.1653 75.4437 21.1653V21.1653ZM4.30871 1.82586H12.926V7.27533H10.9683C10.1313 7.27533 9.45291 7.64864 9.45291 8.10925C9.45291 8.56986 10.1313 8.94317 10.9683 8.94317H12.926V14.5571H10.9683C10.1313 14.5571 9.45291 14.9308 9.45291 15.3911C9.45291 15.8517 10.1313 16.225 10.9683 16.225H12.926V21.8389H10.9683C10.1313 21.8389 9.45291 22.2123 9.45291 22.6729C9.45291 23.1335 10.1313 23.5068 10.9683 23.5068H12.926V29.1208H10.9683C10.1313 29.1208 9.45291 29.4941 9.45291 29.9547C9.45291 30.4153 10.1313 30.7886 10.9683 30.7886H12.926V36.4026H10.9683C10.1313 36.4026 9.45291 36.7762 9.45291 37.2365C9.45291 37.6971 10.1313 38.0704 10.9683 38.0704H12.926V40.9461H4.30871V1.82586ZM73.9283 40.9461H15.9569V36.212H22.7929V37.287C22.7929 37.7473 23.4713 38.1209 24.3083 38.1209C25.1454 38.1209 25.8238 37.7473 25.8238 37.287V36.212H36.0417V37.287C36.0417 37.7473 36.7201 38.1209 37.5572 38.1209C38.3942 38.1209 39.0726 37.7473 39.0726 37.287V36.212H49.2906V37.287C49.2906 37.7473 49.9696 38.1209 50.806 38.1209C51.6431 38.1209 52.3215 37.7473 52.3215 37.287V36.212H62.5394V37.287C62.5394 37.7473 63.2184 38.1209 64.0549 38.1209C64.8919 38.1209 65.5703 37.7473 65.5703 37.287V36.212H73.9283V40.9461Z" fill="black"/>
<path d="M24.1568 17.1432C24.7145 17.4566 25.6172 17.4787 26.2234 17.1947L27.3162 16.6823V31.6218C27.3162 32.0821 27.9951 32.4557 28.8316 32.4557H66.0415C66.878 32.4557 67.557 32.0821 67.557 31.6218V16.6823L68.6497 17.1947C68.9339 17.3282 69.2837 17.394 69.6324 17.394C70.0267 17.394 70.4203 17.3093 70.7157 17.1432L75.5361 14.4313C75.8268 14.2678 75.9824 14.0457 75.9671 13.8173C75.9517 13.589 75.7664 13.3736 75.4544 13.2225L48.4382 0.124414C47.8657 -0.153125 47.0074 -0.153125 46.435 0.124414L19.4187 13.2225C19.1067 13.3736 18.9215 13.589 18.9061 13.8173C18.8907 14.0457 19.0464 14.2678 19.337 14.4313L24.1568 17.1432ZM43.0288 30.7879V25.0602H51.8438V30.7879H43.0288ZM64.5261 30.7879H54.8746V24.2263C54.8746 23.7657 54.1962 23.3924 53.3592 23.3924H41.5133C40.6769 23.3924 39.9979 23.7657 39.9979 24.2263V30.7879H30.347V15.2607L47.4366 7.24661L64.5261 15.2607V30.7879ZM47.4366 1.86164L72.253 13.8932L69.5389 15.4203L48.4192 5.51622C47.8527 5.25041 47.0198 5.25041 46.4533 5.51622L25.3343 15.4203L22.6201 13.8932L47.4366 1.86164Z" fill="black"/>
</g>
<defs>
<clipPath id="clip0_78949_61">
<rect width="77.5904" height="42.6966" fill="white" transform="translate(0.217041)"/>
</clipPath>
</defs>
</svg>
