<svg width="80" height="51" viewBox="0 0 80 51" fill="none" xmlns="http://www.w3.org/2000/svg">
<g opacity="0.6">
<path d="M76 26.9663H74.6667V9.26969C74.6667 5.05618 69.3334 1.68542 62.6667 1.68542C56.7652 1.68542 52.5206 4.45112 52.0458 8.50347C48.9475 8.87359 46.6667 10.5601 46.6667 12.6404C46.6667 13.1461 47.2 13.4831 48 13.4831H58.6667C59.4667 13.4831 60 13.1461 60 12.6404C60 10.5831 57.7697 8.91063 54.7239 8.51581C55.1223 5.83801 57.667 3.37075 62.6667 3.37075C67.8667 3.37075 72 5.98308 72 9.2696V26.9662H31.8711C31.268 25.0227 28.6089 23.5955 25.3334 23.5955C24.0002 22.5842 22.1334 21.91 20.0002 21.91C17.4669 21.91 15.2002 22.837 14.1334 24.1853C13.0667 23.8483 11.8667 23.5955 10.6667 23.5955C7.39125 23.5955 4.73219 25.0227 4.12906 26.9662H4C1.73328 26.9662 0 28.0617 0 29.4943C0 30.9269 1.73328 32.0224 4 32.0224H5.60234L9.2 41.0393C10.2667 43.6516 14 45.5056 18.2667 45.5056H19.3334L17.6002 47.6967C17.2002 48.118 17.4669 48.6237 18.1334 48.7921C18.2667 48.8764 18.5334 48.8764 18.6667 48.8764C19.2 48.8764 19.6 48.7078 19.8667 48.455L22.2 45.5056H59.2L61.4667 48.3708C61.7334 48.7078 62.1334 48.8764 62.6667 48.8764C62.9334 48.8764 63.0667 48.8764 63.2 48.7078C63.7333 48.5392 64 48.0336 63.7333 47.6123L62.0631 45.5011C66.1911 45.4084 69.7609 43.5862 70.8 41.1235L74.4312 32.0224H76C78.2667 32.0224 80 30.9269 80 29.4943C80 28.0618 78.2667 26.9663 76 26.9663ZM57.2 11.7978H49.6C50.1333 10.7865 51.7333 10.1124 53.4667 10.1124C55.2002 10.1124 56.6667 10.7865 57.2 11.7978ZM10.6667 25.2809C11.8667 25.2809 12.9334 25.6179 13.8667 26.2079C14.1334 26.4607 14.6667 26.5449 15.2 26.4607C15.7333 26.3765 16 26.1237 16.1333 25.7865C16.5333 24.5225 18.1333 23.5955 20.1333 23.5955C21.6 23.5955 22.9333 24.0169 23.6 24.8595C23.8667 25.1966 24.5333 25.3651 25.0667 25.2809C25.2 25.2809 25.3334 25.2809 25.4667 25.2809C27.2 25.2809 28.6667 25.9551 29.2 26.9663H6.93328C7.46672 25.9551 8.93328 25.2809 10.6667 25.2809ZM68.4 40.618C67.6 42.4719 64.9333 43.8203 61.8667 43.8203H18.4C15.3333 43.8203 12.6667 42.472 11.8667 40.618L8.4 32.0225H71.6L68.4 40.618ZM76 30.3371H73.3333H6.66672H4C3.2 30.3371 2.66672 30 2.66672 29.4944C2.66672 28.9888 3.2 28.6518 4 28.6518H5.33328H30.6666H76C76.8 28.6518 77.3333 28.9888 77.3333 29.4944C77.3333 30 76.8 30.3371 76 30.3371Z" fill="black"/>
<path d="M48 17.2752C48.8 17.2752 49.3333 16.9382 49.3333 16.4326V16.0112C49.3333 15.5056 48.8 15.1685 48 15.1685C47.2 15.1685 46.6667 15.5056 46.6667 16.0112V16.4326C46.6667 16.9382 47.2 17.2752 48 17.2752Z" fill="black"/>
<path d="M48 21.1517C48.8 21.1517 49.3333 20.7303 49.3333 20.309V19.382C49.3333 18.8764 48.8 18.5394 48 18.5394C47.2 18.5394 46.6667 18.8764 46.6667 19.382V20.309C46.6667 20.8146 47.2 21.1517 48 21.1517Z" fill="black"/>
<path d="M48 24.4382C48.8 24.4382 49.3333 24.1011 49.3333 23.5955V23.1741C49.3333 22.6685 48.8 22.3315 48 22.3315C47.2 22.3315 46.6667 22.6685 46.6667 23.1741V23.5955C46.6667 24.101 47.2 24.4382 48 24.4382Z" fill="black"/>
<path d="M53.3333 17.2752C54.1333 17.2752 54.6666 16.9382 54.6666 16.4326V16.0112C54.6666 15.5056 54.1333 15.1685 53.3333 15.1685C52.5333 15.1685 52 15.5056 52 16.0112V16.4326C52 16.9382 52.5333 17.2752 53.3333 17.2752Z" fill="black"/>
<path d="M52 20.309C52 20.8146 52.5333 21.1516 53.3333 21.1516C54.1333 21.1516 54.6666 20.7303 54.6666 20.309V19.382C54.6666 18.8764 54.1333 18.5393 53.3333 18.5393C52.5333 18.5393 52 18.8764 52 19.382V20.309Z" fill="black"/>
<path d="M52 23.5955C52 24.1011 52.5333 24.4381 53.3333 24.4381C54.1333 24.4381 54.6666 24.1011 54.6666 23.5955V23.1741C54.6666 22.6685 54.1333 22.3314 53.3333 22.3314C52.5333 22.3314 52 22.6685 52 23.1741V23.5955Z" fill="black"/>
<path d="M58.667 17.2752C59.467 17.2752 60.0003 16.9382 60.0003 16.4326V16.0112C60.0003 15.5056 59.467 15.1685 58.667 15.1685C57.867 15.1685 57.3337 15.5056 57.3337 16.0112V16.4326C57.3336 16.9382 57.867 17.2752 58.667 17.2752Z" fill="black"/>
<path d="M57.3333 20.309C57.3333 20.8146 57.8665 21.1516 58.6665 21.1516C59.4665 21.1516 60 20.7304 60 20.309V19.382C60 18.8764 59.4667 18.5393 58.6667 18.5393C57.8667 18.5393 57.3334 18.8764 57.3334 19.382V20.309H57.3333Z" fill="black"/>
<path d="M57.3333 23.5955C57.3333 24.1011 57.8665 24.4381 58.6665 24.4381C59.4665 24.4381 59.9998 24.1011 59.9998 23.5955V23.1741C59.9998 22.6685 59.4665 22.3314 58.6665 22.3314C57.8665 22.3314 57.3333 22.6685 57.3333 23.1741V23.5955Z" fill="black"/>
</g>
</svg>
